PathFileType	3	(X/Y/Z)	C:\Users\koon_\Desktop\
DataRate	CameraRate	NumFrames	NumMarkers	Units	OrigDataRate	OrigDataStartFrame	OrigNumFrames
100.0	100.0	9	27	mm	100.0	2802	4482	
Frame#	Time	get:LFHD			get:RFHD			get:LBHD			get:RBHD			get:C7			get:T10			get:CLAV			get:STRN			get:RBAK			get:LSHO			get:LUPA			get:LELB			get:LFRA			get:LWRA			get:LWRB			get:LFIN			get:RSHO			get:RUPA			get:RELB			get:RFRA			get:RWRA			get:RWRB			get:RFIN			get:LASI			get:RASI			get:LPSI			get:RPSI			
		X1	Y1	Z1	X2	Y2	Z2	X3	Y3	Z3	X4	Y4	Z4	X5	Y5	Z5	X6	Y6	Z6	X7	Y7	Z7	X8	Y8	Z8	X9	Y9	Z9	X10	Y10	Z10	X11	Y11	Z11	X12	Y12	Z12	X13	Y13	Z13	X14	Y14	Z14	X15	Y15	Z15	X16	Y16	Z16	X17	Y17	Z17	X18	Y18	Z18	X19	Y19	Z19	X20	Y20	Z20	X21	Y21	Z21	X22	Y22	Z22	X23	Y23	Z23	X24	Y24	Z24	X25	Y25	Z25	X26	Y26	Z26	X27	Y27	Z27	
2802	28.01	60.140419	1569.1842	-39.493092	-93.971024	1560.2103	-68.056602	77.680984	1563.0322	-163.23232	-43.770679	1566.3632	-203.98845	36.706642	1384.1538	-203.75865	49.508358	1125.4343	-253.70348	-27.070576	1290.4237	-36.122913	-24.485781	1102.5905	-5.397583	-37.716469	1317.8477	-264.30759	144.42097	1366.2483	-59.29631	181.74655	1251.6892	22.740456	169.45471	1112.4631	114.96431	97.671982	1215.2141	120.72444	26.905794	1273.6458	131.56441	23.945124	1248.6428	195.63458	-31.276434	1333.9845	193.75026	-135.49455	1365.4875	-171.26424	-251.44533	1180.5065	-146.66849	-282.75366	1074.8845	-152.97102	-252.79778	1165.3309	-104.05721	-192.69334	1255.4841	-24.100866	-214.64052	1213.3236	32.207844	-192.51089	1306.7975	48.671886	123.85113	926.29083	-37.157452	-148.40106	921.11414	-97.01889	84.083305	959.35907	-251.15869	-24.601656	947.59094	-274.69806
2803	28.02	60.575333	1569.0034	-38.97345	-93.48967	1560.2217	-67.707947	78.272873	1563.0785	-162.72987	-43.159428	1566.6388	-203.71259	37.601093	1384.3187	-203.62334	50.575466	1125.5592	-253.72156	-26.98863	1290.4241	-36.318771	-24.476954	1102.6069	-5.6540456	-36.409744	1318.0494	-264.68274	144.57945	1366.2988	-58.71648	181.64374	1251.8866	23.54105	169.27687	1112.6327	115.76604	97.548187	1215.3463	121.28633	26.474392	1273.6459	131.47572	23.094311	1248.634	195.5107	-32.443287	1333.8292	193.28271	-134.68443	1365.5669	-171.98651	-251.56256	1180.6285	-150.69586	-282.9678	1075.2488	-158.54135	-254.02132	1165.4424	-108.57652	-195.64839	1254.9252	-27.053988	-218.26306	1212.3367	28.815689	-196.63177	1305.6752	46.41618	124.1755	926.27759	-37.1884	-147.92239	921.21747	-97.791664	85.018272	959.45715	-251.28162	-23.553905	947.68188	-275.17764
2804	28.03	60.974247	1568.7844	-38.495937	-93.115257	1560.2322	-67.457947	78.51194	1563.0796	-162.27184	-42.567711	1566.9021	-203.35323	38.453323	1384.4814	-203.39571	51.615387	1125.7306	-253.66045	-26.938612	1290.4407	-36.469551	-24.503366	1102.6344	-5.8509235	-35.15274	1318.2751	-265.02756	144.7211	1366.3616	-58.176189	181.59941	1252.1033	24.33812	169.30534	1112.8436	116.573	97.389626	1215.4546	121.56763	26.172516	1273.7175	131.34077	22.504196	1248.7241	195.39629	-33.337872	1333.7714	192.68851	-133.91917	1365.6663	-172.65617	-250.95386	1180.6945	-154.52017	-283.05109	1075.5553	-164.3638	-254.30569	1165.2371	-113.30016	-198.89328	1254.23	-29.979645	-222.16626	1211.2032	25.125374	-200.83652	1304.4247	44.09869	124.44405	926.25433	-37.229038	-147.47639	921.33813	-98.536362	85.910675	959.50647	-251.32507	-22.562439	947.80493	-275.55185
2805	28.04	61.317074	1568.6067	-37.900242	-92.712852	1560.2164	-67.106712	79.287392	1563.24	-161.72342	-42.06543	1567.1649	-202.92578	39.263531	1384.6328	-203.19693	52.560925	1125.9441	-253.60954	-26.820395	1290.4702	-36.53772	-24.463097	1102.5748	-6.1905141	-33.980907	1318.5306	-265.24969	144.86163	1366.4054	-57.583042	181.67702	1252.3303	25.077271	169.4984	1113.1273	117.42346	97.588005	1215.6791	122.00304	26.10593	1273.8563	131.16597	22.088068	1248.874	195.22972	-33.959137	1333.8308	192.06834	-133.13448	1365.7872	-173.25278	-250.53239	1181.0173	-158.44667	-283.0228	1075.9325	-170.70996	-255.12955	1165.1219	-118.3596	-202.51201	1253.4371	-32.96899	-226.3521	1209.793	21.471239	-205.19733	1302.5668	41.323593	124.74995	926.20734	-37.283104	-147.08066	921.4306	-99.232353	86.791229	959.6416	-251.45984	-21.566732	947.99243	-275.88336
2806	28.05	61.626038	1568.4558	-37.318287	-92.386505	1560.2085	-66.609604	79.392967	1563.2365	-161.15469	-41.631371	1567.3961	-202.36986	40.097408	1384.7554	-202.90413	53.421017	1126.1528	-253.56415	-26.676365	1290.4875	-36.615883	-24.40906	1102.6062	-6.2897673	-32.829887	1318.7761	-265.42606	145.0361	1366.4259	-56.966728	181.88475	1252.5438	25.835779	169.82724	1113.3999	118.18202	97.893372	1215.9226	122.30136	26.204063	1274.0721	130.9071	22.0026	1249.3312	194.929	-34.32975	1334.0378	191.38541	-132.29317	1365.8984	-173.70204	-250.5127	1181.0629	-162.93774	-282.79562	1076.2991	-177.40747	-256.2265	1165.3403	-123.49647	-206.4967	1252.4507	-36.105526	-230.68575	1208.0643	17.610594	-210.04948	1300.9321	39.588146	125.04317	926.17725	-37.309689	-146.65952	921.55011	-99.803535	87.533363	959.71509	-251.45483	-20.711451	948.14209	-276.14609
2807	28.06	61.851292	1568.2898	-36.684708	-92.115486	1560.1027	-66.192886	79.742592	1563.3822	-160.51903	-41.178913	1567.6217	-201.84433	40.76083	1384.9222	-202.61786	54.255249	1126.3545	-253.4518	-26.481873	1290.4976	-36.65535	-24.356432	1102.5762	-6.3928781	-31.724855	1319.0668	-265.50638	145.31303	1366.4562	-56.372601	182.1364	1252.8085	26.481192	170.34532	1113.7416	119.04382	98.308586	1216.2075	122.55505	26.560949	1274.3923	130.72989	22.034977	1249.681	194.67581	-34.581398	1334.3483	190.79495	-131.56122	1366.0372	-174.09012	-250.24182	1181.1171	-167.47772	-282.32135	1076.6588	-184.69464	-256.94931	1164.6715	-129.37296	-210.91898	1251.2877	-39.318943	-235.14687	1205.9067	13.509313	-215.22969	1298.5591	37.313225	125.29461	926.14081	-37.357834	-146.22972	921.58771	-100.4375	88.360954	959.92181	-251.63075	-19.906933	948.31744	-276.43451
2808	28.07	62.046406	1568.1455	-36.00248	-91.891312	1559.9727	-65.599396	80.089645	1563.5254	-159.79315	-40.807819	1567.8723	-201.39603	41.506409	1385.0631	-202.23619	55.006416	1126.5479	-253.36044	-26.214334	1290.5378	-36.559593	-24.239582	1102.5724	-6.3656788	-30.738464	1319.2894	-265.45404	145.58517	1366.4817	-55.937065	182.55151	1253.0342	27.061909	170.95279	1114.144	119.84615	98.944633	1216.5924	122.90129	27.081997	1274.7888	130.54146	22.122257	1250.0199	194.65808	-34.487373	1334.8414	189.94547	-130.95197	1366.2128	-174.4229	-250.05803	1181.0027	-172.44543	-281.7211	1077.0413	-192.51573	-257.88477	1164.7197	-135.55081	-216.64885	1250.0636	-42.969528	-239.6917	1203.2181	9.1398487	-220.93237	1295.5154	34.943802	125.55676	926.08258	-37.435875	-145.84758	921.70038	-100.86549	89.055367	960.10175	-251.65454	-19.192242	948.47198	-276.62015
2809	28.08	62.117687	1568.0604	-35.178574	-91.751892	1559.822	-65.055473	80.336502	1563.7133	-158.95818	-40.554386	1568.0049	-200.66585	42.086613	1385.2277	-201.87816	55.718876	1126.7443	-253.26813	-25.9667	1290.6349	-36.465454	-24.068228	1102.5718	-6.4332924	-29.832312	1319.5229	-265.30548	145.81236	1366.5148	-55.455509	182.99304	1253.26	27.628916	171.6844	1114.5751	120.74117	99.794174	1217.0609	123.27469	27.807224	1275.2394	130.42828	22.415646	1250.5264	194.46211	-34.372047	1335.3297	189.25699	-130.29456	1366.662	-175.07222	-249.68549	1180.962	-177.72049	-280.75946	1077.4659	-200.63223	-258.70416	1164.1198	-142.23381	-220.85902	1247.9591	-46.261761	-244.8745	1200.2052	4.3676319	-226.964	1292.3528	31.84741	125.82785	926.05286	-37.554977	-145.51666	921.76556	-101.25492	89.485115	960.06116	-251.50768	-18.495499	948.64557	-276.77042
2810	28.09	62.193489	1567.9763	-34.311703	-91.665421	1559.5833	-64.414421	80.511772	1563.9647	-158.10193	-40.337582	1568.1383	-199.73535	42.672222	1385.3988	-201.40585	56.298668	1126.9153	-253.07867	-25.622702	1290.7572	-36.333508	-23.893293	1102.5662	-6.3922715	-29.036411	1319.788	-264.99896	146.15109	1366.5377	-54.907585	183.52106	1253.4901	28.217319	172.58136	1115.1056	121.55537	100.6748	1217.5488	123.61451	28.722771	1275.7478	130.22882	22.868042	1251.1642	194.35271	-34.075603	1335.847	188.57523	-129.91769	1366.804	-174.89082	-249.26291	1180.9744	-183.30751	-279.61884	1078.0042	-209.41386	-259.36346	1163.7775	-148.82588	-225.64816	1245.7035	-49.874546	-250.14925	1196.7714	-0.78641206	-233.39499	1288.5673	29.923594	126.11044	925.96576	-37.659355	-145.12495	921.80817	-101.5954	90.013977	960.16223	-251.54233	-17.916834	948.75616	-276.91376
